<svg width="20" height="26" viewBox="0 0 20 26" fill="none" xmlns="http://www.w3.org/2000/svg">
<path d="M10 0.5C8.67392 0.5 7.40215 1.02678 6.46447 1.96447C5.52678 2.90215 5 4.17392 5 5.5C5 6.82608 5.52678 8.09785 6.46447 9.03553C7.40215 9.97322 8.67392 10.5 10 10.5C11.3261 10.5 12.5979 9.97322 13.5355 9.03553C14.4732 8.09785 15 6.82608 15 5.5C15 4.17392 14.4732 2.90215 13.5355 1.96447C12.5979 1.02678 11.3261 0.5 10 0.5ZM16.25 13H3.75C2.75544 13 1.80161 13.3951 1.09835 14.0983C0.395088 14.8016 0 15.7554 0 16.75C0 19.54 1.1475 21.775 3.03 23.2875C4.8825 24.775 7.3675 25.5 10 25.5C12.6325 25.5 15.1175 24.775 16.97 23.2875C18.85 21.775 20 19.54 20 16.75C20 15.7554 19.6049 14.8016 18.9017 14.0983C18.1984 13.3951 17.2446 13 16.25 13Z" fill="white"/>
</svg>
