<svg width="23" height="14" viewBox="0 0 23 14" fill="none" xmlns="http://www.w3.org/2000/svg">
<path d="M11.5 11.6073L1.46973 0.290663C1.3889 0.197491 1.29294 0.123831 1.18739 0.073945C1.08185 0.0240592 0.968816 -0.00106339 0.854841 3.42917e-05C0.740867 0.00113293 0.628213 0.028428 0.523396 0.0803404C0.41858 0.132252 0.323684 0.20775 0.244198 0.302466C0.164713 0.397183 0.102217 0.509236 0.0603275 0.632142C0.0184379 0.755048 -0.00201395 0.886368 0.000155674 1.0185C0.0023253 1.15063 0.0270733 1.28095 0.0729674 1.40192C0.118861 1.52289 0.18499 1.6321 0.267528 1.72324L10.8989 13.7169C11.0598 13.8984 11.2755 14 11.5 14C11.7245 14 11.9402 13.8984 12.1011 13.7169L22.7325 1.72324C22.815 1.6321 22.8811 1.52288 22.927 1.40192C22.9729 1.28095 22.9977 1.15063 22.9998 1.0185C23.002 0.886367 22.9816 0.755047 22.9397 0.632141C22.8978 0.509235 22.8353 0.397182 22.7558 0.302465C22.6763 0.207749 22.5814 0.132251 22.4766 0.0803393C22.3718 0.028427 22.2591 0.00113191 22.1452 3.32801e-05C22.0312 -0.00106439 21.9182 0.0240583 21.8126 0.073944C21.7071 0.12383 21.6111 0.19749 21.5303 0.290662L11.5 11.6073Z" fill="#CECECE"/>
</svg>
