<svg width="120" height="140" viewBox="0 0 120 140" fill="none" xmlns="http://www.w3.org/2000/svg">
<g id="Vector" filter="url(#filter0_d_410_1678)">
<path d="M60 25C54.6957 25 49.6086 27.1071 45.8579 30.8579C42.1071 34.6086 40 39.6957 40 45C40 50.3043 42.1071 55.3914 45.8579 59.1421C49.6086 62.8929 54.6957 65 60 65C65.3043 65 70.3914 62.8929 74.1421 59.1421C77.8929 55.3914 80 50.3043 80 45C80 39.6957 77.8929 34.6086 74.1421 30.8579C70.3914 27.1071 65.3043 25 60 25ZM85 75H35C31.0218 75 27.2064 76.5803 24.3934 79.3934C21.5804 82.2064 20 86.0218 20 90C20 101.16 24.59 110.1 32.12 116.15C39.53 122.1 49.47 125 60 125C70.53 125 80.47 122.1 87.88 116.15C95.4 110.1 100 101.16 100 90C100 86.0218 98.4196 82.2064 95.6066 79.3934C92.7936 76.5803 88.9782 75 85 75Z" fill="white"/>
</g>
<defs>
<filter id="filter0_d_410_1678" x="0" y="0" width="120" height="140" filterUnits="userSpaceOnUse" color-interpolation-filters="sRGB">
<feFlood flood-opacity="0" result="BackgroundImageFix"/>
<feColorMatrix in="SourceAlpha" type="matrix" values="0 0 0 0 0 0 0 0 0 0 0 0 0 0 0 0 0 0 127 0" result="hardAlpha"/>
<feOffset dy="-5"/>
<feGaussianBlur stdDeviation="10"/>
<feComposite in2="hardAlpha" operator="out"/>
<feColorMatrix type="matrix" values="0 0 0 0 0 0 0 0 0 0 0 0 0 0 0 0 0 0 0.35 0"/>
<feBlend mode="normal" in2="BackgroundImageFix" result="effect1_dropShadow_410_1678"/>
<feBlend mode="normal" in="SourceGraphic" in2="effect1_dropShadow_410_1678" result="shape"/>
</filter>
</defs>
</svg>
