<svg width="38" height="35" viewBox="0 0 38 35" fill="none" xmlns="http://www.w3.org/2000/svg">
<path d="M11.0049 34C16.5277 34 21.0049 29.5228 21.0049 24C21.0049 18.4772 16.5277 14 11.0049 14C5.48204 14 1.00488 18.4772 1.00488 24C1.00488 29.5228 5.48204 34 11.0049 34Z" stroke="url(#paint0_linear_590_330)" stroke-width="2" stroke-linecap="round" stroke-linejoin="round"/>
<path d="M14.0049 19H9.00488L8.00488 20V23L9.00488 24H13.0049L14.0049 25V28L13.0049 29H8.00488" stroke="url(#paint1_linear_590_330)" stroke-width="2" stroke-linecap="round" stroke-linejoin="round"/>
<path d="M11.0049 19V17" stroke="url(#paint2_linear_590_330)" stroke-width="2" stroke-linecap="round" stroke-linejoin="round"/>
<path d="M11.0049 29V31" stroke="url(#paint3_linear_590_330)" stroke-width="2" stroke-linecap="round" stroke-linejoin="round"/>
<path d="M14.7949 4.99999C15.8649 3.84999 17.3349 3.09999 18.9949 3.00999C21.6049 2.86999 23.8949 4.29999 24.9949 6.43999C26.1649 4.16999 28.6649 2.69999 31.4649 3.04999C34.6749 3.44999 36.9949 6.32999 36.9949 9.55999C36.9949 13.04 35.6149 16.39 33.1449 18.85L24.9949 27" stroke="url(#paint4_linear_590_330)" stroke-width="2" stroke-linecap="round" stroke-linejoin="round"/>
<path d="M25.0049 11V19" stroke="url(#paint5_linear_590_330)" stroke-width="2" stroke-linecap="round" stroke-linejoin="round"/>
<path d="M29.0049 15H21.0049" stroke="url(#paint6_linear_590_330)" stroke-width="2" stroke-linecap="round" stroke-linejoin="round"/>
<path d="M11.0049 11V1" stroke="url(#paint7_linear_590_330)" stroke-width="2" stroke-linecap="round" stroke-linejoin="round"/>
<path d="M14.0049 8L11.0049 11L8.00488 8" stroke="url(#paint8_linear_590_330)" stroke-width="2" stroke-linecap="round" stroke-linejoin="round"/>
<defs>
<linearGradient id="paint0_linear_590_330" x1="11.0049" y1="14" x2="11.0049" y2="34" gradientUnits="userSpaceOnUse">
<stop stop-color="#3F82A1"/>
<stop offset="1" stop-color="#CD9C3D"/>
</linearGradient>
<linearGradient id="paint1_linear_590_330" x1="11.0049" y1="19" x2="11.0049" y2="29" gradientUnits="userSpaceOnUse">
<stop stop-color="#3F82A1"/>
<stop offset="1" stop-color="#CD9C3D"/>
</linearGradient>
<linearGradient id="paint2_linear_590_330" x1="11.5049" y1="17" x2="11.5049" y2="19" gradientUnits="userSpaceOnUse">
<stop stop-color="#3F82A1"/>
<stop offset="1" stop-color="#CD9C3D"/>
</linearGradient>
<linearGradient id="paint3_linear_590_330" x1="11.5049" y1="29" x2="11.5049" y2="31" gradientUnits="userSpaceOnUse">
<stop stop-color="#3F82A1"/>
<stop offset="1" stop-color="#CD9C3D"/>
</linearGradient>
<linearGradient id="paint4_linear_590_330" x1="25.8949" y1="2.99857" x2="25.8949" y2="27" gradientUnits="userSpaceOnUse">
<stop stop-color="#3F82A1"/>
<stop offset="1" stop-color="#CD9C3D"/>
</linearGradient>
<linearGradient id="paint5_linear_590_330" x1="25.5049" y1="11" x2="25.5049" y2="19" gradientUnits="userSpaceOnUse">
<stop stop-color="#3F82A1"/>
<stop offset="1" stop-color="#CD9C3D"/>
</linearGradient>
<linearGradient id="paint6_linear_590_330" x1="25.0049" y1="15" x2="25.0049" y2="16" gradientUnits="userSpaceOnUse">
<stop stop-color="#3F82A1"/>
<stop offset="1" stop-color="#CD9C3D"/>
</linearGradient>
<linearGradient id="paint7_linear_590_330" x1="11.5049" y1="1" x2="11.5049" y2="11" gradientUnits="userSpaceOnUse">
<stop stop-color="#3F82A1"/>
<stop offset="1" stop-color="#CD9C3D"/>
</linearGradient>
<linearGradient id="paint8_linear_590_330" x1="11.0049" y1="8" x2="11.0049" y2="11" gradientUnits="userSpaceOnUse">
<stop stop-color="#3F82A1"/>
<stop offset="1" stop-color="#CD9C3D"/>
</linearGradient>
</defs>
</svg>
