<svg width="165" height="143" viewBox="0 0 165 143" fill="none" xmlns="http://www.w3.org/2000/svg">
<rect width="165" height="143" fill="#D8D8D8"/>
<g id="Main-Page" clip-path="url(#clip0_0_1)">
<rect width="1920" height="2697" transform="translate(-1273 -2051)" fill="#F2F2F2"/>
<g id="Frame 5">
<rect width="1920" height="2696.96" transform="translate(-1274 -2051)" fill="#F0F0F0"/>
<g id="Call to action">
<g id="Mask group">
<g id="Call to action_2">
<g id="Frame 2">
<path id="Vector" fill-rule="evenodd" clip-rule="evenodd" d="M33.4132 13.9266C20.74 19.5109 11.4586 32.8011 11.4586 48.6478C11.4586 64.8333 18.3337 77.3132 28.1728 88.0102C36.2931 96.8213 46.117 104.129 55.6963 111.246C57.9728 112.94 60.2339 114.628 62.4569 116.315C66.475 119.372 70.0578 122.046 73.5182 123.999C76.9711 125.943 79.7517 126.835 82.1198 126.835C84.4879 126.835 87.2685 125.951 90.7214 123.999C94.1819 122.046 97.7646 119.372 101.783 116.315C103.998 114.62 106.267 112.94 108.543 111.246C118.123 104.129 127.947 96.8213 136.067 88.0102C145.914 77.3132 152.781 64.8333 152.781 48.6478C152.781 40.6037 150.387 33.2152 146.371 27.1596C144.55 24.4138 142.395 21.942 139.979 19.8075C137.231 17.3802 134.145 15.3889 130.826 13.9266C118.512 8.49705 101.966 9.93364 86.2449 25.6919C85.7105 26.2266 85.0697 26.652 84.3609 26.9425C83.6522 27.233 82.8899 27.3828 82.1198 27.3828C81.3497 27.3828 80.5875 27.233 79.8787 26.9425C79.1699 26.652 78.5292 26.2266 77.9947 25.6919C62.2736 9.93364 45.7274 8.49705 33.4132 13.9266ZM82.1198 14.1918C64.4583 -1.05808 44.6808 -3.19454 28.6465 3.87051C11.7336 11.3481 0 28.6756 0 48.6551C0 68.2885 8.47935 83.2732 19.6094 95.3552C28.5166 105.028 39.4175 113.125 49.0504 120.271C51.2351 121.892 53.3511 123.468 55.3602 125C59.279 127.977 63.4805 131.145 67.7355 133.546C71.9904 135.941 76.8489 137.893 82.1198 137.893C87.3908 137.893 92.2492 135.941 96.5042 133.546C100.767 131.145 104.961 127.977 108.879 125C110.972 123.41 113.075 121.834 115.189 120.271C124.814 113.125 135.723 105.021 144.63 95.3552C155.76 83.2732 164.24 68.2885 164.24 48.6551C164.24 38.4969 161.208 29.0243 156.005 21.1852C155.008 19.6836 153.931 18.242 152.781 16.867C152.651 16.7109 152.519 16.5557 152.387 16.4014C151.444 15.3027 150.991 14.9338 149.956 13.9266C145.952 10.0295 140.745 6.15728 135.593 3.88525C119.559 -3.18717 99.7813 -1.05071 82.1198 14.1918Z" fill="url(#paint0_linear_0_1)"/>
</g>
</g>
</g>
</g>
</g>
</g>
<defs>
<linearGradient id="paint0_linear_0_1" x1="82.1198" y1="0" x2="82.1198" y2="137.893" gradientUnits="userSpaceOnUse">
<stop stop-color="#1E6DB6"/>
<stop offset="1" stop-color="#D8BA6F"/>
</linearGradient>
<clipPath id="clip0_0_1">
<rect width="1920" height="2697" fill="white" transform="translate(-1273 -2051)"/>
</clipPath>
</defs>
</svg>
