<svg width="244" height="27" viewBox="0 0 244 27" fill="none" xmlns="http://www.w3.org/2000/svg">
<path d="M31.352 21.24C30.328 21.24 29.352 21.08 28.424 20.76C27.496 20.44 26.688 19.992 26 19.416C25.312 18.84 24.808 18.176 24.488 17.424C24.328 17.088 24.328 16.776 24.488 16.488C24.664 16.2 24.952 16.016 25.352 15.936C25.64 15.872 25.92 15.92 26.192 16.08C26.48 16.224 26.696 16.448 26.84 16.752C27.032 17.152 27.344 17.52 27.776 17.856C28.224 18.192 28.76 18.464 29.384 18.672C30.008 18.88 30.664 18.984 31.352 18.984C32.12 18.984 32.824 18.864 33.464 18.624C34.12 18.384 34.648 18.04 35.048 17.592C35.448 17.128 35.648 16.56 35.648 15.888C35.648 15.04 35.312 14.28 34.64 13.608C33.984 12.936 32.896 12.52 31.376 12.36C29.392 12.168 27.832 11.584 26.696 10.608C25.56 9.632 24.992 8.424 24.992 6.984C24.992 5.928 25.288 5.032 25.88 4.296C26.472 3.56 27.272 3 28.28 2.616C29.304 2.232 30.44 2.04 31.688 2.04C32.664 2.04 33.512 2.176 34.232 2.448C34.968 2.72 35.608 3.096 36.152 3.576C36.696 4.056 37.168 4.624 37.568 5.28C37.792 5.632 37.88 5.968 37.832 6.288C37.8 6.592 37.648 6.832 37.376 7.008C37.072 7.2 36.744 7.24 36.392 7.128C36.04 7.016 35.776 6.808 35.6 6.504C35.344 6.04 35.032 5.648 34.664 5.328C34.296 5.008 33.864 4.76 33.368 4.584C32.872 4.392 32.288 4.296 31.616 4.296C30.432 4.28 29.44 4.504 28.64 4.968C27.84 5.416 27.44 6.112 27.44 7.056C27.44 7.536 27.56 8 27.8 8.448C28.056 8.88 28.512 9.256 29.168 9.576C29.84 9.896 30.8 10.12 32.048 10.248C33.952 10.44 35.432 11.024 36.488 12C37.56 12.96 38.096 14.232 38.096 15.816C38.096 16.728 37.904 17.52 37.52 18.192C37.152 18.864 36.648 19.432 36.008 19.896C35.384 20.344 34.664 20.68 33.848 20.904C33.048 21.128 32.216 21.24 31.352 21.24ZM47.6354 21.096C46.3394 21.096 45.1954 20.816 44.2034 20.256C43.2114 19.68 42.4274 18.896 41.8514 17.904C41.2914 16.896 41.0114 15.744 41.0114 14.448C41.0114 13.136 41.2914 11.984 41.8514 10.992C42.4274 9.984 43.2114 9.2 44.2034 8.64C45.1954 8.064 46.3394 7.776 47.6354 7.776C48.9154 7.776 50.0514 8.064 51.0434 8.64C52.0354 9.2 52.8114 9.984 53.3714 10.992C53.9474 11.984 54.2354 13.136 54.2354 14.448C54.2354 15.744 53.9554 16.896 53.3954 17.904C52.8354 18.896 52.0594 19.68 51.0674 20.256C50.0754 20.816 48.9314 21.096 47.6354 21.096ZM47.6354 18.936C48.4674 18.936 49.2034 18.744 49.8434 18.36C50.4834 17.976 50.9794 17.448 51.3314 16.776C51.6994 16.104 51.8834 15.328 51.8834 14.448C51.8834 13.568 51.6994 12.792 51.3314 12.12C50.9794 11.432 50.4834 10.896 49.8434 10.512C49.2034 10.128 48.4674 9.936 47.6354 9.936C46.8034 9.936 46.0674 10.128 45.4274 10.512C44.7874 10.896 44.2834 11.432 43.9154 12.12C43.5474 12.792 43.3634 13.568 43.3634 14.448C43.3634 15.328 43.5474 16.104 43.9154 16.776C44.2834 17.448 44.7874 17.976 45.4274 18.36C46.0674 18.744 46.8034 18.936 47.6354 18.936ZM60.9988 21C60.2948 21 59.6708 20.808 59.1268 20.424C58.5828 20.04 58.1588 19.52 57.8548 18.864C57.5508 18.192 57.3988 17.424 57.3988 16.56V3.456C57.3988 3.104 57.5108 2.816 57.7348 2.592C57.9588 2.368 58.2468 2.256 58.5988 2.256C58.9508 2.256 59.2388 2.368 59.4628 2.592C59.6868 2.816 59.7988 3.104 59.7988 3.456V16.56C59.7988 17.152 59.9108 17.64 60.1348 18.024C60.3588 18.408 60.6468 18.6 60.9988 18.6H61.5988C61.9188 18.6 62.1748 18.712 62.3668 18.936C62.5748 19.16 62.6788 19.448 62.6788 19.8C62.6788 20.152 62.5268 20.44 62.2228 20.664C61.9188 20.888 61.5268 21 61.0468 21H60.9988ZM70.2995 21.096C69.0515 21.096 67.9235 20.808 66.9155 20.232C65.9235 19.64 65.1315 18.84 64.5395 17.832C63.9635 16.824 63.6755 15.688 63.6755 14.424C63.6755 13.16 63.9395 12.032 64.4675 11.04C65.0115 10.032 65.7475 9.24 66.6755 8.664C67.6035 8.072 68.6515 7.776 69.8195 7.776C70.7635 7.776 71.6355 7.976 72.4355 8.376C73.2355 8.76 73.9075 9.288 74.4515 9.96V3.48C74.4515 3.112 74.5635 2.816 74.7875 2.592C75.0275 2.368 75.3235 2.256 75.6755 2.256C76.0435 2.256 76.3395 2.368 76.5635 2.592C76.7875 2.816 76.8995 3.112 76.8995 3.48V14.424C76.8995 15.688 76.6035 16.824 76.0115 17.832C75.4355 18.84 74.6515 19.64 73.6595 20.232C72.6675 20.808 71.5475 21.096 70.2995 21.096ZM70.2995 18.936C71.1155 18.936 71.8435 18.744 72.4835 18.36C73.1235 17.96 73.6275 17.416 73.9955 16.728C74.3635 16.04 74.5475 15.272 74.5475 14.424C74.5475 13.56 74.3635 12.792 73.9955 12.12C73.6275 11.448 73.1235 10.92 72.4835 10.536C71.8435 10.136 71.1155 9.936 70.2995 9.936C69.4995 9.936 68.7715 10.136 68.1155 10.536C67.4755 10.92 66.9635 11.448 66.5795 12.12C66.2115 12.792 66.0275 13.56 66.0275 14.424C66.0275 15.272 66.2115 16.04 66.5795 16.728C66.9635 17.416 67.4755 17.96 68.1155 18.36C68.7715 18.744 69.4995 18.936 70.2995 18.936ZM82.6865 21C82.3345 21 82.0385 20.888 81.7985 20.664C81.5745 20.424 81.4625 20.128 81.4625 19.776V9.096C81.4625 8.728 81.5745 8.432 81.7985 8.208C82.0385 7.984 82.3345 7.872 82.6865 7.872C83.0545 7.872 83.3505 7.984 83.5745 8.208C83.7985 8.432 83.9105 8.728 83.9105 9.096V19.776C83.9105 20.128 83.7985 20.424 83.5745 20.664C83.3505 20.888 83.0545 21 82.6865 21ZM82.6865 5.736C82.2545 5.736 81.8785 5.584 81.5585 5.28C81.2545 4.96 81.1025 4.584 81.1025 4.152C81.1025 3.72 81.2545 3.352 81.5585 3.048C81.8785 2.728 82.2545 2.568 82.6865 2.568C83.1185 2.568 83.4865 2.728 83.7905 3.048C84.1105 3.352 84.2705 3.72 84.2705 4.152C84.2705 4.584 84.1105 4.96 83.7905 5.28C83.4865 5.584 83.1185 5.736 82.6865 5.736ZM94.6327 21.096C93.3047 21.096 92.1207 20.816 91.0807 20.256C90.0567 19.68 89.2487 18.896 88.6567 17.904C88.0807 16.896 87.7927 15.744 87.7927 14.448C87.7927 13.136 88.0647 11.984 88.6087 10.992C89.1687 9.984 89.9367 9.2 90.9127 8.64C91.8887 8.064 93.0087 7.776 94.2727 7.776C95.5207 7.776 96.5927 8.056 97.4887 8.616C98.3847 9.16 99.0647 9.92 99.5287 10.896C100.009 11.856 100.249 12.968 100.249 14.232C100.249 14.536 100.145 14.792 99.9367 15C99.7287 15.192 99.4647 15.288 99.1447 15.288H89.4727V13.368H99.0727L98.0887 14.04C98.0727 13.24 97.9127 12.528 97.6087 11.904C97.3047 11.264 96.8727 10.76 96.3127 10.392C95.7527 10.024 95.0727 9.84 94.2727 9.84C93.3607 9.84 92.5767 10.04 91.9207 10.44C91.2807 10.84 90.7927 11.392 90.4567 12.096C90.1207 12.784 89.9527 13.568 89.9527 14.448C89.9527 15.328 90.1527 16.112 90.5527 16.8C90.9527 17.488 91.5047 18.032 92.2087 18.432C92.9127 18.832 93.7207 19.032 94.6327 19.032C95.1287 19.032 95.6327 18.944 96.1447 18.768C96.6727 18.576 97.0967 18.36 97.4167 18.12C97.6567 17.944 97.9127 17.856 98.1847 17.856C98.4727 17.84 98.7207 17.92 98.9287 18.096C99.2007 18.336 99.3447 18.6 99.3607 18.888C99.3767 19.176 99.2487 19.424 98.9767 19.632C98.4327 20.064 97.7527 20.416 96.9367 20.688C96.1367 20.96 95.3687 21.096 94.6327 21.096ZM104.547 12.792C104.547 11.832 104.779 10.976 105.243 10.224C105.723 9.456 106.363 8.848 107.163 8.4C107.963 7.952 108.843 7.728 109.803 7.728C110.763 7.728 111.475 7.888 111.939 8.208C112.419 8.512 112.603 8.88 112.491 9.312C112.443 9.536 112.347 9.712 112.203 9.84C112.075 9.952 111.923 10.024 111.747 10.056C111.571 10.088 111.379 10.08 111.171 10.032C110.147 9.824 109.227 9.808 108.411 9.984C107.595 10.16 106.947 10.488 106.467 10.968C106.003 11.448 105.771 12.056 105.771 12.792H104.547ZM104.571 21C104.187 21 103.891 20.904 103.683 20.712C103.475 20.504 103.371 20.2 103.371 19.8V9.072C103.371 8.688 103.475 8.392 103.683 8.184C103.891 7.976 104.187 7.872 104.571 7.872C104.971 7.872 105.267 7.976 105.459 8.184C105.667 8.376 105.771 8.672 105.771 9.072V19.8C105.771 20.184 105.667 20.48 105.459 20.688C105.267 20.896 104.971 21 104.571 21ZM119.819 21.096C118.699 21.096 117.659 20.928 116.699 20.592C115.755 20.24 115.019 19.8 114.491 19.272C114.251 19.016 114.147 18.728 114.179 18.408C114.227 18.072 114.387 17.8 114.659 17.592C114.979 17.336 115.291 17.232 115.595 17.28C115.915 17.312 116.187 17.448 116.411 17.688C116.683 17.992 117.115 18.28 117.707 18.552C118.315 18.808 118.987 18.936 119.723 18.936C120.651 18.936 121.355 18.784 121.835 18.48C122.331 18.176 122.587 17.784 122.603 17.304C122.619 16.824 122.387 16.408 121.907 16.056C121.443 15.704 120.587 15.416 119.339 15.192C117.723 14.872 116.547 14.392 115.811 13.752C115.091 13.112 114.731 12.328 114.731 11.4C114.731 10.584 114.971 9.912 115.451 9.384C115.931 8.84 116.547 8.44 117.299 8.184C118.051 7.912 118.835 7.776 119.651 7.776C120.707 7.776 121.643 7.944 122.459 8.28C123.275 8.616 123.923 9.08 124.403 9.672C124.627 9.928 124.731 10.2 124.715 10.488C124.699 10.76 124.563 10.992 124.307 11.184C124.051 11.36 123.747 11.416 123.395 11.352C123.043 11.288 122.747 11.144 122.507 10.92C122.107 10.536 121.675 10.272 121.211 10.128C120.747 9.984 120.211 9.912 119.603 9.912C118.899 9.912 118.299 10.032 117.803 10.272C117.323 10.512 117.083 10.864 117.083 11.328C117.083 11.616 117.155 11.88 117.299 12.12C117.459 12.344 117.763 12.552 118.211 12.744C118.659 12.92 119.315 13.096 120.179 13.272C121.379 13.512 122.323 13.816 123.011 14.184C123.715 14.552 124.219 14.984 124.523 15.48C124.827 15.96 124.979 16.52 124.979 17.16C124.979 17.896 124.779 18.56 124.379 19.152C123.995 19.744 123.419 20.216 122.651 20.568C121.899 20.92 120.955 21.096 119.819 21.096ZM126.61 8.952C126.354 8.952 126.154 8.84 126.01 8.616C125.882 8.376 125.874 8.128 125.986 7.872C126.274 7.216 126.45 6.68 126.514 6.264C126.578 5.848 126.578 5.488 126.514 5.184C126.466 4.88 126.402 4.592 126.322 4.32C126.242 4.032 126.202 3.712 126.202 3.36C126.202 2.944 126.346 2.6 126.634 2.328C126.922 2.056 127.266 1.92 127.666 1.92C128.162 1.92 128.546 2.128 128.818 2.544C129.09 2.96 129.226 3.48 129.226 4.104C129.226 4.52 129.138 5 128.962 5.544C128.786 6.088 128.562 6.624 128.29 7.152C128.034 7.664 127.754 8.096 127.45 8.448C127.146 8.784 126.866 8.952 126.61 8.952ZM138.79 21.24C137.766 21.24 136.79 21.08 135.862 20.76C134.934 20.44 134.126 19.992 133.438 19.416C132.75 18.84 132.246 18.176 131.926 17.424C131.766 17.088 131.766 16.776 131.926 16.488C132.102 16.2 132.39 16.016 132.79 15.936C133.078 15.872 133.358 15.92 133.63 16.08C133.918 16.224 134.134 16.448 134.278 16.752C134.47 17.152 134.782 17.52 135.214 17.856C135.662 18.192 136.198 18.464 136.822 18.672C137.446 18.88 138.102 18.984 138.79 18.984C139.558 18.984 140.262 18.864 140.902 18.624C141.558 18.384 142.086 18.04 142.486 17.592C142.886 17.128 143.086 16.56 143.086 15.888C143.086 15.04 142.75 14.28 142.078 13.608C141.422 12.936 140.334 12.52 138.814 12.36C136.83 12.168 135.27 11.584 134.134 10.608C132.998 9.632 132.43 8.424 132.43 6.984C132.43 5.928 132.726 5.032 133.318 4.296C133.91 3.56 134.71 3 135.718 2.616C136.742 2.232 137.878 2.04 139.126 2.04C140.102 2.04 140.95 2.176 141.67 2.448C142.406 2.72 143.046 3.096 143.59 3.576C144.134 4.056 144.606 4.624 145.006 5.28C145.23 5.632 145.318 5.968 145.27 6.288C145.238 6.592 145.086 6.832 144.814 7.008C144.51 7.2 144.182 7.24 143.83 7.128C143.478 7.016 143.214 6.808 143.038 6.504C142.782 6.04 142.47 5.648 142.102 5.328C141.734 5.008 141.302 4.76 140.806 4.584C140.31 4.392 139.726 4.296 139.054 4.296C137.87 4.28 136.878 4.504 136.078 4.968C135.278 5.416 134.878 6.112 134.878 7.056C134.878 7.536 134.998 8 135.238 8.448C135.494 8.88 135.95 9.256 136.605 9.576C137.278 9.896 138.238 10.12 139.486 10.248C141.39 10.44 142.87 11.024 143.926 12C144.998 12.96 145.534 14.232 145.534 15.816C145.534 16.728 145.342 17.52 144.958 18.192C144.59 18.864 144.086 19.432 143.446 19.896C142.822 20.344 142.102 20.68 141.286 20.904C140.486 21.128 139.654 21.24 138.79 21.24ZM154.641 21.12C153.537 21.12 152.545 20.888 151.665 20.424C150.801 19.944 150.113 19.248 149.601 18.336C149.105 17.424 148.857 16.304 148.857 14.976V9.072C148.857 8.72 148.969 8.432 149.193 8.208C149.433 7.968 149.729 7.848 150.081 7.848C150.433 7.848 150.721 7.968 150.945 8.208C151.185 8.432 151.305 8.72 151.305 9.072V14.976C151.305 15.872 151.473 16.616 151.809 17.208C152.145 17.784 152.601 18.216 153.177 18.504C153.753 18.776 154.401 18.912 155.121 18.912C155.809 18.912 156.417 18.776 156.945 18.504C157.489 18.232 157.921 17.864 158.241 17.4C158.561 16.936 158.721 16.416 158.721 15.84H160.233C160.233 16.832 159.985 17.728 159.489 18.528C159.009 19.328 158.345 19.96 157.497 20.424C156.665 20.888 155.713 21.12 154.641 21.12ZM159.945 21C159.593 21 159.297 20.888 159.057 20.664C158.833 20.424 158.721 20.128 158.721 19.776V9.072C158.721 8.704 158.833 8.408 159.057 8.184C159.297 7.96 159.593 7.848 159.945 7.848C160.313 7.848 160.609 7.96 160.833 8.184C161.057 8.408 161.169 8.704 161.169 9.072V19.776C161.169 20.128 161.057 20.424 160.833 20.664C160.609 20.888 160.313 21 159.945 21ZM166.704 26.616C166.352 26.616 166.056 26.496 165.816 26.256C165.592 26.032 165.48 25.744 165.48 25.392V14.448C165.496 13.184 165.792 12.048 166.368 11.04C166.944 10.032 167.728 9.24 168.72 8.664C169.712 8.072 170.832 7.776 172.08 7.776C173.344 7.776 174.472 8.072 175.464 8.664C176.456 9.24 177.24 10.032 177.816 11.04C178.408 12.048 178.704 13.184 178.704 14.448C178.704 15.712 178.432 16.848 177.888 17.856C177.36 18.848 176.632 19.64 175.704 20.232C174.776 20.808 173.728 21.096 172.56 21.096C171.616 21.096 170.744 20.904 169.944 20.52C169.16 20.12 168.488 19.584 167.928 18.912V25.392C167.928 25.744 167.816 26.032 167.592 26.256C167.368 26.496 167.072 26.616 166.704 26.616ZM172.08 18.936C172.896 18.936 173.624 18.744 174.264 18.36C174.904 17.96 175.408 17.424 175.776 16.752C176.16 16.064 176.352 15.296 176.352 14.448C176.352 13.584 176.16 12.816 175.776 12.144C175.408 11.456 174.904 10.92 174.264 10.536C173.624 10.136 172.896 9.936 172.08 9.936C171.28 9.936 170.552 10.136 169.896 10.536C169.256 10.92 168.752 11.456 168.384 12.144C168.016 12.816 167.832 13.584 167.832 14.448C167.832 15.296 168.016 16.064 168.384 16.752C168.752 17.424 169.256 17.96 169.896 18.36C170.552 18.744 171.28 18.936 172.08 18.936ZM183.579 26.616C183.227 26.616 182.931 26.496 182.691 26.256C182.467 26.032 182.355 25.744 182.355 25.392V14.448C182.371 13.184 182.667 12.048 183.243 11.04C183.819 10.032 184.603 9.24 185.595 8.664C186.587 8.072 187.707 7.776 188.955 7.776C190.219 7.776 191.347 8.072 192.339 8.664C193.331 9.24 194.115 10.032 194.691 11.04C195.283 12.048 195.579 13.184 195.579 14.448C195.579 15.712 195.307 16.848 194.763 17.856C194.235 18.848 193.507 19.64 192.579 20.232C191.651 20.808 190.603 21.096 189.435 21.096C188.491 21.096 187.619 20.904 186.819 20.52C186.035 20.12 185.363 19.584 184.803 18.912V25.392C184.803 25.744 184.691 26.032 184.467 26.256C184.243 26.496 183.947 26.616 183.579 26.616ZM188.955 18.936C189.771 18.936 190.499 18.744 191.139 18.36C191.779 17.96 192.283 17.424 192.651 16.752C193.035 16.064 193.227 15.296 193.227 14.448C193.227 13.584 193.035 12.816 192.651 12.144C192.283 11.456 191.779 10.92 191.139 10.536C190.499 10.136 189.771 9.936 188.955 9.936C188.155 9.936 187.427 10.136 186.771 10.536C186.131 10.92 185.627 11.456 185.259 12.144C184.891 12.816 184.707 13.584 184.707 14.448C184.707 15.296 184.891 16.064 185.259 16.752C185.627 17.424 186.131 17.96 186.771 18.36C187.427 18.744 188.155 18.936 188.955 18.936ZM205.182 21.096C203.886 21.096 202.742 20.816 201.75 20.256C200.758 19.68 199.974 18.896 199.398 17.904C198.838 16.896 198.558 15.744 198.558 14.448C198.558 13.136 198.838 11.984 199.398 10.992C199.974 9.984 200.758 9.2 201.75 8.64C202.742 8.064 203.886 7.776 205.182 7.776C206.462 7.776 207.598 8.064 208.59 8.64C209.582 9.2 210.358 9.984 210.918 10.992C211.494 11.984 211.782 13.136 211.782 14.448C211.782 15.744 211.502 16.896 210.942 17.904C210.382 18.896 209.606 19.68 208.614 20.256C207.622 20.816 206.478 21.096 205.182 21.096ZM205.182 18.936C206.014 18.936 206.75 18.744 207.39 18.36C208.03 17.976 208.526 17.448 208.878 16.776C209.246 16.104 209.43 15.328 209.43 14.448C209.43 13.568 209.246 12.792 208.878 12.12C208.526 11.432 208.03 10.896 207.39 10.512C206.75 10.128 206.014 9.936 205.182 9.936C204.35 9.936 203.614 10.128 202.974 10.512C202.334 10.896 201.83 11.432 201.462 12.12C201.094 12.792 200.91 13.568 200.91 14.448C200.91 15.328 201.094 16.104 201.462 16.776C201.83 17.448 202.334 17.976 202.974 18.36C203.614 18.744 204.35 18.936 205.182 18.936ZM216.602 12.792C216.602 11.832 216.834 10.976 217.298 10.224C217.778 9.456 218.418 8.848 219.218 8.4C220.018 7.952 220.898 7.728 221.858 7.728C222.818 7.728 223.53 7.888 223.994 8.208C224.474 8.512 224.658 8.88 224.546 9.312C224.498 9.536 224.402 9.712 224.258 9.84C224.13 9.952 223.978 10.024 223.802 10.056C223.626 10.088 223.434 10.08 223.226 10.032C222.202 9.824 221.282 9.808 220.466 9.984C219.65 10.16 219.002 10.488 218.522 10.968C218.058 11.448 217.826 12.056 217.826 12.792H216.602ZM216.626 21C216.242 21 215.946 20.904 215.738 20.712C215.53 20.504 215.426 20.2 215.426 19.8V9.072C215.426 8.688 215.53 8.392 215.738 8.184C215.946 7.976 216.242 7.872 216.626 7.872C217.026 7.872 217.322 7.976 217.514 8.184C217.722 8.376 217.826 8.672 217.826 9.072V19.8C217.826 20.184 217.722 20.48 217.514 20.688C217.322 20.896 217.026 21 216.626 21ZM231.874 21C231.074 21 230.354 20.8 229.714 20.4C229.074 19.984 228.57 19.424 228.202 18.72C227.834 18.016 227.65 17.224 227.65 16.344V4.896C227.65 4.544 227.762 4.256 227.986 4.032C228.21 3.808 228.498 3.696 228.85 3.696C229.202 3.696 229.49 3.808 229.714 4.032C229.938 4.256 230.05 4.544 230.05 4.896V16.344C230.05 16.984 230.226 17.52 230.578 17.952C230.93 18.384 231.362 18.6 231.874 18.6H232.69C232.978 18.6 233.218 18.712 233.41 18.936C233.618 19.16 233.722 19.448 233.722 19.8C233.722 20.152 233.586 20.44 233.314 20.664C233.058 20.888 232.722 21 232.306 21H231.874ZM226.546 10.416C226.21 10.416 225.938 10.32 225.729 10.128C225.522 9.936 225.418 9.696 225.418 9.408C225.418 9.088 225.522 8.832 225.729 8.64C225.938 8.448 226.21 8.352 226.546 8.352H232.09C232.426 8.352 232.698 8.448 232.906 8.64C233.114 8.832 233.218 9.088 233.218 9.408C233.218 9.696 233.114 9.936 232.906 10.128C232.698 10.32 232.426 10.416 232.09 10.416H226.546Z" fill="black"/>
<g clip-path="url(#clip0_255_15)">
<path fill-rule="evenodd" clip-rule="evenodd" d="M6.27763 2.6295C3.89661 3.68387 2.15282 6.19322 2.15282 9.18524C2.15282 12.2413 3.44452 14.5976 5.29308 16.6173C6.81871 18.2809 8.6644 19.6608 10.4642 21.0045C10.8919 21.3244 11.3167 21.643 11.7343 21.9615C12.4892 22.5388 13.1624 23.0437 13.8125 23.4123C14.4612 23.7795 14.9837 23.9478 15.4286 23.9478C15.8735 23.9478 16.3959 23.7809 17.0446 23.4123C17.6948 23.0437 18.3679 22.5388 19.1228 21.9615C19.539 21.6416 19.9653 21.3244 20.393 21.0045C22.1927 19.6608 24.0384 18.2809 25.5641 16.6173C27.4141 14.5976 28.7043 12.2413 28.7043 9.18524C28.7043 7.66643 28.2546 6.2714 27.5 5.12803C27.1579 4.60959 26.753 4.1429 26.2991 3.73987C25.7828 3.28157 25.203 2.9056 24.5795 2.6295C22.2659 1.60434 19.1573 1.87558 16.2036 4.85091C16.1032 4.95188 15.9828 5.03219 15.8496 5.08705C15.7165 5.1419 15.5733 5.17017 15.4286 5.17017C15.2839 5.17017 15.1407 5.1419 15.0075 5.08705C14.8744 5.03219 14.754 4.95188 14.6536 4.85091C11.6999 1.87558 8.5912 1.60434 6.27763 2.6295ZM15.4286 2.67958C12.1104 -0.199778 8.39458 -0.603165 5.38206 0.730796C2.20449 2.14265 0 5.41426 0 9.18663C0 12.8936 1.59309 15.7229 3.6842 18.0041C5.35766 19.8305 7.40571 21.3592 9.21552 22.7085C9.62599 23.0145 10.0235 23.3122 10.401 23.6015C11.1373 24.1634 11.9266 24.7616 12.7261 25.215C13.5255 25.6671 14.4383 26.0357 15.4286 26.0357C16.4189 26.0357 17.3317 25.6671 18.1311 25.215C18.9319 24.7616 19.7199 24.1634 20.4561 23.6015C20.8492 23.3013 21.2444 23.0036 21.6416 22.7085C23.45 21.3592 25.4995 19.8291 27.1729 18.0041C29.2641 15.7229 30.8571 12.8936 30.8571 9.18663C30.8571 7.26865 30.2877 5.48011 29.3099 4C29.1227 3.71649 28.9204 3.44429 28.7043 3.18467C28.6798 3.15521 28.6551 3.1259 28.6302 3.09677C28.4531 2.88932 28.368 2.81968 28.1736 2.6295C27.4213 1.89368 26.4429 1.16256 25.4751 0.733578C22.4626 -0.601774 18.7468 -0.198387 15.4286 2.67958Z" fill="url(#paint0_linear_255_15)"/>
<g clip-path="url(#clip1_255_15)">
<path d="M31.352 21.24C30.328 21.24 29.352 21.08 28.424 20.76C27.496 20.44 26.688 19.992 26 19.416C25.312 18.84 24.808 18.176 24.488 17.424C24.328 17.088 24.328 16.776 24.488 16.488C24.664 16.2 24.952 16.016 25.352 15.936C25.64 15.872 25.92 15.92 26.192 16.08C26.48 16.224 26.696 16.448 26.84 16.752C27.032 17.152 27.344 17.52 27.776 17.856C28.224 18.192 28.76 18.464 29.384 18.672C30.008 18.88 30.664 18.984 31.352 18.984C32.12 18.984 32.824 18.864 33.464 18.624C34.12 18.384 34.648 18.04 35.048 17.592C35.448 17.128 35.648 16.56 35.648 15.888C35.648 15.04 35.312 14.28 34.64 13.608C33.984 12.936 32.896 12.52 31.376 12.36C29.392 12.168 27.832 11.584 26.696 10.608C25.56 9.632 24.992 8.424 24.992 6.984C24.992 5.928 25.288 5.032 25.88 4.296C26.472 3.56 27.272 3 28.28 2.616C29.304 2.232 30.44 2.04 31.688 2.04C32.664 2.04 33.512 2.176 34.232 2.448C34.968 2.72 35.608 3.096 36.152 3.576C36.696 4.056 37.168 4.624 37.568 5.28C37.792 5.632 37.88 5.968 37.832 6.288C37.8 6.592 37.648 6.832 37.376 7.008C37.072 7.2 36.744 7.24 36.392 7.128C36.04 7.016 35.776 6.808 35.6 6.504C35.344 6.04 35.032 5.648 34.664 5.328C34.296 5.008 33.864 4.76 33.368 4.584C32.872 4.392 32.288 4.296 31.616 4.296C30.432 4.28 29.44 4.504 28.64 4.968C27.84 5.416 27.44 6.112 27.44 7.056C27.44 7.536 27.56 8 27.8 8.448C28.056 8.88 28.512 9.256 29.168 9.576C29.84 9.896 30.8 10.12 32.048 10.248C33.952 10.44 35.432 11.024 36.488 12C37.56 12.96 38.096 14.232 38.096 15.816C38.096 16.728 37.904 17.52 37.52 18.192C37.152 18.864 36.648 19.432 36.008 19.896C35.384 20.344 34.664 20.68 33.848 20.904C33.048 21.128 32.216 21.24 31.352 21.24Z" fill="black"/>
</g>
<g clip-path="url(#clip2_255_15)">
<path d="M31.352 21.24C30.328 21.24 29.352 21.08 28.424 20.76C27.496 20.44 26.688 19.992 26 19.416C25.312 18.84 24.808 18.176 24.488 17.424C24.328 17.088 24.328 16.776 24.488 16.488C24.664 16.2 24.952 16.016 25.352 15.936C25.64 15.872 25.92 15.92 26.192 16.08C26.48 16.224 26.696 16.448 26.84 16.752C27.032 17.152 27.344 17.52 27.776 17.856C28.224 18.192 28.76 18.464 29.384 18.672C30.008 18.88 30.664 18.984 31.352 18.984C32.12 18.984 32.824 18.864 33.464 18.624C34.12 18.384 34.648 18.04 35.048 17.592C35.448 17.128 35.648 16.56 35.648 15.888C35.648 15.04 35.312 14.28 34.64 13.608C33.984 12.936 32.896 12.52 31.376 12.36C29.392 12.168 27.832 11.584 26.696 10.608C25.56 9.632 24.992 8.424 24.992 6.984C24.992 5.928 25.288 5.032 25.88 4.296C26.472 3.56 27.272 3 28.28 2.616C29.304 2.232 30.44 2.04 31.688 2.04C32.664 2.04 33.512 2.176 34.232 2.448C34.968 2.72 35.608 3.096 36.152 3.576C36.696 4.056 37.168 4.624 37.568 5.28C37.792 5.632 37.88 5.968 37.832 6.288C37.8 6.592 37.648 6.832 37.376 7.008C37.072 7.2 36.744 7.24 36.392 7.128C36.04 7.016 35.776 6.808 35.6 6.504C35.344 6.04 35.032 5.648 34.664 5.328C34.296 5.008 33.864 4.76 33.368 4.584C32.872 4.392 32.288 4.296 31.616 4.296C30.432 4.28 29.44 4.504 28.64 4.968C27.84 5.416 27.44 6.112 27.44 7.056C27.44 7.536 27.56 8 27.8 8.448C28.056 8.88 28.512 9.256 29.168 9.576C29.84 9.896 30.8 10.12 32.048 10.248C33.952 10.44 35.432 11.024 36.488 12C37.56 12.96 38.096 14.232 38.096 15.816C38.096 16.728 37.904 17.52 37.52 18.192C37.152 18.864 36.648 19.432 36.008 19.896C35.384 20.344 34.664 20.68 33.848 20.904C33.048 21.128 32.216 21.24 31.352 21.24Z" fill="black"/>
</g>
</g>
<defs>
<linearGradient id="paint0_linear_255_15" x1="15.4286" y1="0" x2="15.4286" y2="26.0357" gradientUnits="userSpaceOnUse">
<stop stop-color="#ECC081"/>
<stop offset="1" stop-color="#5BA0BF"/>
</linearGradient>
<clipPath id="clip0_255_15">
<rect width="32" height="27" fill="white"/>
</clipPath>
<clipPath id="clip1_255_15">
<rect width="8" height="6" fill="white" transform="translate(24 1)"/>
</clipPath>
<clipPath id="clip2_255_15">
<rect width="7" height="5" fill="white" transform="translate(22 15)"/>
</clipPath>
</defs>
</svg>
