<svg width="14" height="14" viewBox="0 0 14 14" fill="none" xmlns="http://www.w3.org/2000/svg">
<g id="envelope">
<path id="Vector" d="M7 9.625C6.54801 9.625 6.09602 9.47674 5.71047 9.17629L0 4.73594V10.9375C0 11.6621 0.587617 12.25 1.3125 12.25H12.6875C13.4124 12.25 14 11.6624 14 10.9375V4.73594L8.29063 9.1793C7.90508 9.47734 7.45117 9.625 7 9.625ZM0.44543 3.97305L6.24777 8.4875C6.69047 8.83203 7.31062 8.83203 7.75332 8.4875L13.5557 3.97305C13.8113 3.7543 14 3.41797 14 3.0625C14 2.33762 13.4121 1.75 12.6875 1.75H1.3125C0.587617 1.75 0 2.33762 0 3.0625C0 3.41797 0.164336 3.7543 0.44543 3.97305Z" fill="white"/>
</g>
</svg>
